<?xml version="1.0" encoding="utf-8"?>
<!-- Generator: Adobe Illustrator 22.0.1, SVG Export Plug-In . SVG Version: 6.00 Build 0)  -->
<svg version="1.1" id="Layer_1" xmlns="http://www.w3.org/2000/svg" xmlns:xlink="http://www.w3.org/1999/xlink" x="0px" y="0px"
	 viewBox="0 0 35.2 35.2" style="enable-background:new 0 0 35.2 35.2;" xml:space="preserve">
<style type="text/css">
	.st0{fill:#05AC82;}
	.st1{fill:#04A07A;}
	.st2{fill:#FFFFFF;}
</style>
<g>
	<g>
		<path class="st0" d="M35.2,17.5C35.2,7.9,27.3,0,17.6,0c-4.7,0-9,1.9-12.2,4.9C2.1,8.1,0,12.6,0,17.6c0,2.7,0.6,5.2,1.6,7.4h0
			c0.6,1.2,0.9,2.5,0.9,4c0,2.3-0.9,4.4-2.3,6c1.6-1.5,3.7-2.3,6-2.3c1.4,0,2.8,0.3,4,1v-0.1c2.2,1,4.7,1.6,7.3,1.6
			c7.5,0,13.8-4.7,16.4-11.2C34.7,22,35.2,19.8,35.2,17.5"/>
	</g>
</g>
<path class="st1" d="M33.9,24c0.8-2,1.2-4.2,1.2-6.4c0-4.8-2-9.2-5.1-12.4L0.6,34.6c-0.1,0.2-0.3,0.3-0.4,0.5c1.6-1.5,3.7-2.3,6-2.3
	c1.4,0,2.8,0.3,4,1v-0.1c2.2,1,4.7,1.6,7.3,1.6C25,35.2,31.4,30.5,33.9,24z"/>
<g>
	<g>
		<path class="st2" d="M11,17.2C7.3,6.7,18,4.7,23.9,10.9l1,0.1c-7-8-21.4-5.6-17,6.9c4.4,0.7,8.8,1.1,13.2,1.7l-0.2-1L11,17.2z"/>
	</g>
</g>
<g>
	<g>
		<path class="st2" d="M10.1,22c11.1,12.4,24.2,2.8,16.9-8.1l-11.3-2.4l0.2,1l9.4,1.9c5.7,9.5-5.4,16.9-13.7,7.8L10.1,22z"/>
	</g>
</g>
</svg>
